<mxfile host="Electron" agent="Mozilla/5.0 (Windows NT 10.0; Win64; x64) AppleWebKit/537.36 (KHTML, like Gecko) draw.io/24.7.17 Chrome/128.0.6613.36 Electron/32.0.1 Safari/537.36" version="24.7.17">
  <diagram name="Pagina-1" id="VIKsGL4nACPv0XOjfEhr">
    <mxGraphModel dx="801" dy="459" grid="1" gridSize="10" guides="1" tooltips="1" connect="1" arrows="1" fold="1" page="1" pageScale="1" pageWidth="827" pageHeight="1169" math="1" shadow="0">
      <root>
        <mxCell id="0" />
        <mxCell id="1" parent="0" />
        <mxCell id="t_MSkzma5GTj4eWA2Tr6-1" value="thread 0:" style="text;html=1;align=center;verticalAlign=middle;whiteSpace=wrap;rounded=0;" parent="1" vertex="1">
          <mxGeometry x="279" y="240" width="60" height="40" as="geometry" />
        </mxCell>
        <mxCell id="t_MSkzma5GTj4eWA2Tr6-2" value="thread 1:" style="text;html=1;align=center;verticalAlign=middle;whiteSpace=wrap;rounded=0;" parent="1" vertex="1">
          <mxGeometry x="279" y="290" width="60" height="40" as="geometry" />
        </mxCell>
        <mxCell id="t_MSkzma5GTj4eWA2Tr6-3" value="thread 2:" style="text;html=1;align=center;verticalAlign=middle;whiteSpace=wrap;rounded=0;" parent="1" vertex="1">
          <mxGeometry x="279" y="340" width="60" height="40" as="geometry" />
        </mxCell>
        <mxCell id="t_MSkzma5GTj4eWA2Tr6-4" value="thread 3:" style="text;html=1;align=center;verticalAlign=middle;whiteSpace=wrap;rounded=0;fontColor=#5F6D6E;" parent="1" vertex="1">
          <mxGeometry x="279" y="390" width="60" height="40" as="geometry" />
        </mxCell>
        <mxCell id="t_MSkzma5GTj4eWA2Tr6-5" value="c(0,0)" style="rounded=1;whiteSpace=wrap;html=1;fillColor=none;fontFamily=Lucida Console;fontSize=10;" parent="1" vertex="1">
          <mxGeometry x="359" y="240" width="40" height="40" as="geometry" />
        </mxCell>
        <mxCell id="t_MSkzma5GTj4eWA2Tr6-6" value="&lt;span style=&quot;font-family: &amp;quot;Lucida Console&amp;quot;; font-size: 10px;&quot;&gt;c(0,1)&lt;/span&gt;" style="rounded=1;whiteSpace=wrap;html=1;fillColor=none;" parent="1" vertex="1">
          <mxGeometry x="409" y="240" width="40" height="40" as="geometry" />
        </mxCell>
        <mxCell id="t_MSkzma5GTj4eWA2Tr6-7" value="&lt;span style=&quot;font-family: &amp;quot;Lucida Console&amp;quot;; font-size: 10px;&quot;&gt;c(0,2)&lt;/span&gt;" style="rounded=1;whiteSpace=wrap;html=1;fillColor=none;" parent="1" vertex="1">
          <mxGeometry x="459" y="240" width="40" height="40" as="geometry" />
        </mxCell>
        <mxCell id="t_MSkzma5GTj4eWA2Tr6-8" value="&lt;span style=&quot;font-family: &amp;quot;Lucida Console&amp;quot;; font-size: 10px;&quot;&gt;c(0,3)&lt;/span&gt;" style="rounded=1;whiteSpace=wrap;html=1;fillColor=none;" parent="1" vertex="1">
          <mxGeometry x="509" y="240" width="40" height="40" as="geometry" />
        </mxCell>
        <mxCell id="t_MSkzma5GTj4eWA2Tr6-9" value="c(1,0)" style="rounded=1;whiteSpace=wrap;html=1;fillColor=none;fontFamily=Lucida Console;fontSize=10;" parent="1" vertex="1">
          <mxGeometry x="359" y="290" width="40" height="40" as="geometry" />
        </mxCell>
        <mxCell id="t_MSkzma5GTj4eWA2Tr6-10" value="&lt;span style=&quot;font-family: &amp;quot;Lucida Console&amp;quot;; font-size: 10px;&quot;&gt;c(1,1)&lt;/span&gt;" style="rounded=1;whiteSpace=wrap;html=1;fillColor=none;" parent="1" vertex="1">
          <mxGeometry x="409" y="290" width="40" height="40" as="geometry" />
        </mxCell>
        <mxCell id="t_MSkzma5GTj4eWA2Tr6-11" value="&lt;span style=&quot;font-family: &amp;quot;Lucida Console&amp;quot;; font-size: 10px;&quot;&gt;c(1,2)&lt;/span&gt;" style="rounded=1;whiteSpace=wrap;html=1;fillColor=none;" parent="1" vertex="1">
          <mxGeometry x="459" y="290" width="40" height="40" as="geometry" />
        </mxCell>
        <mxCell id="t_MSkzma5GTj4eWA2Tr6-12" value="&lt;span style=&quot;font-family: &amp;quot;Lucida Console&amp;quot;; font-size: 10px;&quot;&gt;c(1,3)&lt;/span&gt;" style="rounded=1;whiteSpace=wrap;html=1;fillColor=none;" parent="1" vertex="1">
          <mxGeometry x="509" y="290" width="40" height="40" as="geometry" />
        </mxCell>
        <mxCell id="t_MSkzma5GTj4eWA2Tr6-13" value="c(2,0)" style="rounded=1;whiteSpace=wrap;html=1;fillColor=none;fontFamily=Lucida Console;fontSize=10;" parent="1" vertex="1">
          <mxGeometry x="359" y="340" width="40" height="40" as="geometry" />
        </mxCell>
        <mxCell id="t_MSkzma5GTj4eWA2Tr6-14" value="&lt;span style=&quot;font-family: &amp;quot;Lucida Console&amp;quot;; font-size: 10px;&quot;&gt;c(2,1)&lt;/span&gt;" style="rounded=1;whiteSpace=wrap;html=1;fillColor=none;" parent="1" vertex="1">
          <mxGeometry x="409" y="340" width="40" height="40" as="geometry" />
        </mxCell>
        <mxCell id="t_MSkzma5GTj4eWA2Tr6-15" value="&lt;span style=&quot;font-family: &amp;quot;Lucida Console&amp;quot;; font-size: 10px;&quot;&gt;c(2,2)&lt;/span&gt;" style="rounded=1;whiteSpace=wrap;html=1;fillColor=none;" parent="1" vertex="1">
          <mxGeometry x="459" y="340" width="40" height="40" as="geometry" />
        </mxCell>
        <mxCell id="t_MSkzma5GTj4eWA2Tr6-16" value="&lt;span style=&quot;font-family: &amp;quot;Lucida Console&amp;quot;; font-size: 10px;&quot;&gt;c(2,3)&lt;/span&gt;" style="rounded=1;whiteSpace=wrap;html=1;fillColor=none;" parent="1" vertex="1">
          <mxGeometry x="509" y="340" width="40" height="40" as="geometry" />
        </mxCell>
        <mxCell id="t_MSkzma5GTj4eWA2Tr6-21" value="&lt;span style=&quot;font-family: &amp;quot;Lucida Console&amp;quot;; font-size: 10px;&quot;&gt;c(0,4)&lt;/span&gt;" style="rounded=1;whiteSpace=wrap;html=1;fillColor=none;" parent="1" vertex="1">
          <mxGeometry x="560" y="240" width="40" height="40" as="geometry" />
        </mxCell>
        <mxCell id="t_MSkzma5GTj4eWA2Tr6-22" value="&lt;span style=&quot;font-family: &amp;quot;Lucida Console&amp;quot;; font-size: 10px;&quot;&gt;c(0,5)&lt;/span&gt;" style="rounded=1;whiteSpace=wrap;html=1;fillColor=none;" parent="1" vertex="1">
          <mxGeometry x="610" y="240" width="40" height="40" as="geometry" />
        </mxCell>
        <mxCell id="t_MSkzma5GTj4eWA2Tr6-23" value="&lt;span style=&quot;font-family: &amp;quot;Lucida Console&amp;quot;; font-size: 10px;&quot;&gt;c(1,4)&lt;/span&gt;" style="rounded=1;whiteSpace=wrap;html=1;fillColor=none;" parent="1" vertex="1">
          <mxGeometry x="560" y="290" width="40" height="40" as="geometry" />
        </mxCell>
        <mxCell id="t_MSkzma5GTj4eWA2Tr6-24" value="&lt;span style=&quot;font-family: &amp;quot;Lucida Console&amp;quot;; font-size: 10px;&quot;&gt;c(1,5)&lt;/span&gt;" style="rounded=1;whiteSpace=wrap;html=1;fillColor=none;" parent="1" vertex="1">
          <mxGeometry x="610" y="290" width="40" height="40" as="geometry" />
        </mxCell>
        <mxCell id="t_MSkzma5GTj4eWA2Tr6-25" value="&lt;span style=&quot;font-family: &amp;quot;Lucida Console&amp;quot;; font-size: 10px;&quot;&gt;c(2,4)&lt;/span&gt;" style="rounded=1;whiteSpace=wrap;html=1;fillColor=none;" parent="1" vertex="1">
          <mxGeometry x="560" y="340" width="40" height="40" as="geometry" />
        </mxCell>
        <mxCell id="t_MSkzma5GTj4eWA2Tr6-26" value="&lt;span style=&quot;font-family: &amp;quot;Lucida Console&amp;quot;; font-size: 10px;&quot;&gt;c(2,5)&lt;/span&gt;" style="rounded=1;whiteSpace=wrap;html=1;fillColor=none;" parent="1" vertex="1">
          <mxGeometry x="610" y="340" width="40" height="40" as="geometry" />
        </mxCell>
        <mxCell id="ZrnVpi37q1G2A4X5CbWK-1" value="" style="endArrow=classic;html=1;rounded=0;" edge="1" parent="1" target="ZrnVpi37q1G2A4X5CbWK-2">
          <mxGeometry width="50" height="50" relative="1" as="geometry">
            <mxPoint x="280" y="440" as="sourcePoint" />
            <mxPoint x="710" y="440" as="targetPoint" />
          </mxGeometry>
        </mxCell>
        <mxCell id="ZrnVpi37q1G2A4X5CbWK-2" value="istanti di&amp;nbsp;&lt;div&gt;tempo&lt;/div&gt;" style="text;html=1;align=center;verticalAlign=middle;whiteSpace=wrap;rounded=0;" vertex="1" parent="1">
          <mxGeometry x="680" y="425" width="60" height="30" as="geometry" />
        </mxCell>
        <mxCell id="ZrnVpi37q1G2A4X5CbWK-3" value="" style="endArrow=none;html=1;rounded=0;" edge="1" parent="1">
          <mxGeometry width="50" height="50" relative="1" as="geometry">
            <mxPoint x="358.81" y="450" as="sourcePoint" />
            <mxPoint x="358.81" y="430" as="targetPoint" />
          </mxGeometry>
        </mxCell>
        <mxCell id="ZrnVpi37q1G2A4X5CbWK-4" value="" style="endArrow=none;html=1;rounded=0;" edge="1" parent="1">
          <mxGeometry width="50" height="50" relative="1" as="geometry">
            <mxPoint x="408.67" y="450" as="sourcePoint" />
            <mxPoint x="408.67" y="430" as="targetPoint" />
          </mxGeometry>
        </mxCell>
        <mxCell id="ZrnVpi37q1G2A4X5CbWK-5" value="" style="endArrow=none;html=1;rounded=0;" edge="1" parent="1">
          <mxGeometry width="50" height="50" relative="1" as="geometry">
            <mxPoint x="459" y="450" as="sourcePoint" />
            <mxPoint x="459" y="430" as="targetPoint" />
          </mxGeometry>
        </mxCell>
        <mxCell id="ZrnVpi37q1G2A4X5CbWK-7" value="" style="endArrow=none;html=1;rounded=0;" edge="1" parent="1">
          <mxGeometry width="50" height="50" relative="1" as="geometry">
            <mxPoint x="510" y="450" as="sourcePoint" />
            <mxPoint x="510" y="430" as="targetPoint" />
          </mxGeometry>
        </mxCell>
        <mxCell id="ZrnVpi37q1G2A4X5CbWK-8" value="" style="endArrow=none;html=1;rounded=0;" edge="1" parent="1">
          <mxGeometry width="50" height="50" relative="1" as="geometry">
            <mxPoint x="559.6" y="450" as="sourcePoint" />
            <mxPoint x="559.6" y="430" as="targetPoint" />
          </mxGeometry>
        </mxCell>
        <mxCell id="ZrnVpi37q1G2A4X5CbWK-9" value="" style="endArrow=none;html=1;rounded=0;" edge="1" parent="1">
          <mxGeometry width="50" height="50" relative="1" as="geometry">
            <mxPoint x="609.67" y="450" as="sourcePoint" />
            <mxPoint x="609.67" y="430" as="targetPoint" />
          </mxGeometry>
        </mxCell>
        <mxCell id="ZrnVpi37q1G2A4X5CbWK-11" value="0" style="text;html=1;align=center;verticalAlign=middle;whiteSpace=wrap;rounded=0;" vertex="1" parent="1">
          <mxGeometry x="348" y="450" width="11" height="20" as="geometry" />
        </mxCell>
        <mxCell id="ZrnVpi37q1G2A4X5CbWK-12" value="1" style="text;html=1;align=center;verticalAlign=middle;whiteSpace=wrap;rounded=0;" vertex="1" parent="1">
          <mxGeometry x="398" y="450" width="11" height="20" as="geometry" />
        </mxCell>
        <mxCell id="ZrnVpi37q1G2A4X5CbWK-13" value="2" style="text;html=1;align=center;verticalAlign=middle;whiteSpace=wrap;rounded=0;" vertex="1" parent="1">
          <mxGeometry x="449" y="450" width="11" height="20" as="geometry" />
        </mxCell>
        <mxCell id="ZrnVpi37q1G2A4X5CbWK-15" value="3" style="text;html=1;align=center;verticalAlign=middle;whiteSpace=wrap;rounded=0;" vertex="1" parent="1">
          <mxGeometry x="499" y="450" width="11" height="20" as="geometry" />
        </mxCell>
        <mxCell id="ZrnVpi37q1G2A4X5CbWK-16" value="4" style="text;html=1;align=center;verticalAlign=middle;whiteSpace=wrap;rounded=0;" vertex="1" parent="1">
          <mxGeometry x="549" y="450" width="11" height="20" as="geometry" />
        </mxCell>
        <mxCell id="ZrnVpi37q1G2A4X5CbWK-17" value="5" style="text;html=1;align=center;verticalAlign=middle;whiteSpace=wrap;rounded=0;" vertex="1" parent="1">
          <mxGeometry x="595" y="450" width="11" height="20" as="geometry" />
        </mxCell>
      </root>
    </mxGraphModel>
  </diagram>
</mxfile>
